<?xml version="1.0" encoding="utf-8"?><svg xmlns="http://www.w3.org/2000/svg" xmlns:xlink="http://www.w3.org/1999/xlink"><symbol viewBox="0 0 30 30" xmlns="http://www.w3.org/2000/svg" id="car"><path d="M18.92 6.01C18.72 5.42 18.16 5 17.5 5h-11c-.66 0-1.21.42-1.42 1.01L3 12v8c0 .55.45 1 1 1h1c.55 0 1-.45 1-1v-1h12v1c0 .55.45 1 1 1h1c.55 0 1-.45 1-1v-8l-2.08-5.99zM6.5 16c-.83 0-1.5-.67-1.5-1.5S5.67 13 6.5 13s1.5.67 1.5 1.5S7.33 16 6.5 16zm11 0c-.83 0-1.5-.67-1.5-1.5s.67-1.5 1.5-1.5 1.5.67 1.5 1.5-.67 1.5-1.5 1.5zM5 11l1.5-4.5h11L19 11H5z"/><path d="M0 0h24v24H0z" fill="none"/></symbol><symbol fill="none" viewBox="0 0 86 86" id="Group" xmlns="http://www.w3.org/2000/svg"><path d="M72.563 0H13.437a4.036 4.036 0 0 0-4.03 4.031V81.97A4.036 4.036 0 0 0 13.436 86h59.126a4.036 4.036 0 0 0 4.03-4.031V4.03A4.036 4.036 0 0 0 72.564 0zM13.437 2.688h59.126c.74 0 1.343.602 1.343 1.343v33.594H12.094V4.031c0-.74.603-1.343 1.344-1.343zm59.126 80.624H13.437c-.74 0-1.343-.602-1.343-1.343V40.313h61.812v41.656c0 .74-.603 1.344-1.344 1.344z" fill="#29497A"/><path d="M28.219 22.844a6.726 6.726 0 0 0 6.718-6.719v-1.344a6.726 6.726 0 0 0-6.718-6.719 6.726 6.726 0 0 0-6.719 6.72v1.343a6.726 6.726 0 0 0 6.719 6.719zm-4.032-8.063a4.036 4.036 0 0 1 4.032-4.031 4.036 4.036 0 0 1 4.031 4.031v1.344a4.036 4.036 0 0 1-4.031 4.031 4.036 4.036 0 0 1-4.032-4.031v-1.344zm-4.254 18.813H36.51a2.462 2.462 0 0 0 2.459-2.46V28.22c0-1.17-.545-2.479-1.458-3.502-1.053-1.18-2.44-1.83-3.905-1.83h-1.14c-.467 0-.9.243-1.145.64-.784 1.274-1.914 2.004-3.102 2.004s-2.319-.73-3.103-2.004a1.344 1.344 0 0 0-1.144-.64h-1.14c-3.02 0-5.363 2.866-5.363 5.332v2.91a2.467 2.467 0 0 0 2.464 2.465zm.223-5.375c0-.908 1.042-2.644 2.676-2.644h.431c1.271 1.69 3.043 2.644 4.956 2.644 1.913 0 3.684-.954 4.955-2.644h.432c1.633 0 2.675 1.736 2.675 2.644v2.687H20.156V28.22zM43 12.094h14.781a1.344 1.344 0 0 0 0-2.688H43a1.344 1.344 0 0 0 0 2.688zm0 10.75h4.031a1.344 1.344 0 0 0 0-2.688H43a1.344 1.344 0 0 0 0 2.688zm13.438-2.688h-4.032a1.344 1.344 0 0 0 0 2.688h4.032a1.344 1.344 0 0 0 0-2.688zm9.406 0h-4.031a1.344 1.344 0 0 0 0 2.688h4.03a1.344 1.344 0 0 0 0-2.688zM43 17.469h22.844a1.344 1.344 0 0 0 0-2.688H43a1.344 1.344 0 0 0 0 2.688zM18.813 47.031H21.5a1.344 1.344 0 1 0 0-2.687h-2.688a1.344 1.344 0 0 0 0 2.687zm48.375-2.687h-38.97a1.344 1.344 0 1 0 0 2.687h38.97a1.344 1.344 0 0 0 0-2.687zm-48.375 8.062H21.5a1.344 1.344 0 1 0 0-2.687h-2.688a1.344 1.344 0 0 0 0 2.687zm48.375-2.687h-38.97a1.344 1.344 0 1 0 0 2.687h38.97a1.344 1.344 0 0 0 0-2.687zm-16.125 8.062h-32.25a1.344 1.344 0 0 0 0 2.688h32.25a1.344 1.344 0 0 0 0-2.688zm-5.375 10.75H18.811a1.344 1.344 0 0 0 0 2.688h26.875a1.344 1.344 0 0 0 0-2.688zm-26.875-2.687h21.5a1.344 1.344 0 0 0 0-2.688h-21.5a1.344 1.344 0 0 0 0 2.688zm14.781 8.062H18.812a1.344 1.344 0 0 0 0 2.688h14.782a1.344 1.344 0 0 0 0-2.688zm33.594 0h-5.376a1.344 1.344 0 0 0 0 2.688h5.376a1.344 1.344 0 0 0 0-2.688zm0-5.375H64.5a1.344 1.344 0 0 0 0 2.688h2.688a1.344 1.344 0 0 0 0-2.688z" fill="#29497A"/><circle cx="50" cy="52" r="33" fill="#29497A" fill-opacity=".5"/></symbol></svg>